name D:\school\WTK\thesis\model\3dpredictsim\Results\batch_windlass\Pog_s1_tmt_aCst_d00_k500_WL10_ig24.mot
datacolumns 128
datarows 4
range 0.00000000 0.03120195
endheader
time	pelvis_tilt	pelvis_list	pelvis_rotation	pelvis_tx	pelvis_ty	pelvis_tz	hip_flexion_l	hip_adduction_l	hip_rotation_l	hip_flexion_r	hip_adduction_r	hip_rotation_r	knee_angle_l	knee_angle_r	ankle_angle_l	ankle_angle_r	subtalar_angle_l	subtalar_angle_r	tmt_angle_l	tmt_angle_r	mtp_angle_l	mtp_angle_r	lumbar_extension	lumbar_bending	lumbar_rotation	arm_flex_l	arm_add_l	arm_rot_l	arm_flex_r	arm_add_r	arm_rot_r	elbow_flex_l	elbow_flex_r	pro_sup_l	pro_sup_r	glut_med1_l/activation	glut_med2_l/activation	glut_med3_l/activation	glut_min1_l/activation	glut_min2_l/activation	glut_min3_l/activation	semimem_l/activation	semiten_l/activation	bifemlh_l/activation	bifemsh_l/activation	sar_l/activation	add_long_l/activation	add_brev_l/activation	add_mag1_l/activation	add_mag2_l/activation	add_mag3_l/activation	tfl_l/activation	pect_l/activation	grac_l/activation	glut_max1_l/activation	glut_max2_l/activation	glut_max3_l/activation	iliacus_l/activation	psoas_l/activation	quad_fem_l/activation	gem_l/activation	peri_l/activation	rect_fem_l/activation	vas_med_l/activation	vas_int_l/activation	vas_lat_l/activation	med_gas_l/activation	lat_gas_l/activation	soleus_l/activation	tib_post_l/activation	flex_dig_l/activation	flex_hal_l/activation	tib_ant_l/activation	per_brev_l/activation	per_long_l/activation	per_tert_l/activation	ext_dig_l/activation	ext_hal_l/activation	ercspn_l/activation	intobl_l/activation	extobl_l/activation	glut_med1_r/activation	glut_med2_r/activation	glut_med3_r/activation	glut_min1_r/activation	glut_min2_r/activation	glut_min3_r/activation	semimem_r/activation	semiten_r/activation	bifemlh_r/activation	bifemsh_r/activation	sar_r/activation	add_long_r/activation	add_brev_r/activation	add_mag1_r/activation	add_mag2_r/activation	add_mag3_r/activation	tfl_r/activation	pect_r/activation	grac_r/activation	glut_max1_r/activation	glut_max2_r/activation	glut_max3_r/activation	iliacus_r/activation	psoas_r/activation	quad_fem_r/activation	gem_r/activation	peri_r/activation	rect_fem_r/activation	vas_med_r/activation	vas_int_r/activation	vas_lat_r/activation	med_gas_r/activation	lat_gas_r/activation	soleus_r/activation	tib_post_r/activation	flex_dig_r/activation	flex_hal_r/activation	tib_ant_r/activation	per_brev_r/activation	per_long_r/activation	per_tert_r/activation	ext_dig_r/activation	ext_hal_r/activation	ercspn_r/activation	intobl_r/activation	extobl_r/activation	
          0.00000000	         -2.91604756	         -1.40164675	          6.19123003	          0.00000000	          0.85832700	         -0.00194774	        -17.44180684	         -1.60830540	         10.29605175	         30.81832299	          3.15590205	          0.77615793	        -11.56181712	        -19.97139118	         -4.07429849	         -6.71331439	         12.77718469	         -5.64164794	         -0.67012859	          0.06927613	         26.85435856	          0.01478827	         -0.52126078	         -0.32660459	         -1.58901024	          5.32651265	        -13.48767700	         16.61325822	         -9.93597521	        -13.90611723	         10.51686170	         32.19440379	         17.63036128	         86.51662706	         86.51662706	          0.36311833	          0.08076971	          0.05000009	          0.33571218	          0.19503007	          0.08495308	          0.05000295	          0.05000034	          0.05000023	          0.06914735	          0.09477520	          0.10426338	          0.05000886	          0.05000107	          0.05000362	          0.05000250	          0.25182440	          0.05022914	          0.05000079	          0.05000348	          0.05000255	          0.05000201	          0.29776836	          0.43534938	          0.05000022	          0.05000084	          0.05000008	          0.17962724	          0.08078717	          0.09710984	          0.06529353	          0.27522634	          0.34584467	          0.24163334	          0.17511328	          0.20159478	          0.25422078	          0.05000015	          0.10505723	          0.17102510	          0.05000039	          0.05224711	          0.05000038	          0.05000001	          0.05000837	          0.05000065	          0.05000079	          0.05000085	          0.05000076	          0.05000342	          0.05000175	          0.05000115	          0.05866729	          0.05866734	          0.12744592	          0.05866774	          0.05000217	          0.11119908	          0.14076921	          0.11817620	          0.13178751	          0.10884411	          0.05000062	          0.05866249	          0.06956702	          0.05000069	          0.05000138	          0.08847833	          0.05912735	          0.06514041	          0.17721663	          0.05000240	          0.05000069	          0.05000009	          0.10966711	          0.12647056	          0.10110236	          0.05866809	          0.05872371	          0.05866721	          0.05000430	          0.05767111	          0.05835636	          0.25211441	          0.17572177	          0.11119827	          0.34127277	          0.60114874	          0.05622952	          0.05000005	          0.11119790	          0.12071227	
          0.01040065	         -2.90091488	         -1.56248750	          6.45896570	          0.01600114	          0.85724420	         -0.00175133	        -17.01715576	         -1.92636622	          9.98725136	         30.22590450	          3.65741493	          1.04950980	        -13.80710068	        -20.00027904	         -4.99911160	         -7.07414062	         13.91494454	         -6.61340239	         -1.34308737	          0.08182872	         27.67370945	          0.07123951	         -0.31367785	         -0.03406016	         -1.65119201	          5.04283544	        -13.52679038	         16.88300842	        -10.90206026	        -13.89383848	         10.31928213	         33.11938716	         17.53417135	         86.51662706	         86.51662706	          0.30947308	          0.06883721	          0.05000005	          0.28611585	          0.16621734	          0.07240258	          0.06234572	          0.05000019	          0.05000024	          0.05893189	          0.08077380	          0.18452441	          0.19254157	          0.14984685	          0.05000153	          0.05000091	          0.21462118	          0.11119454	          0.05000046	          0.05000066	          0.05000036	          0.05000027	          0.25377754	          0.37103303	          0.05000006	          0.05000058	          0.05000426	          0.15309003	          0.06885246	          0.10400505	          0.13047278	          0.23456574	          0.29475127	          0.20593561	          0.14924293	          0.17181230	          0.21666354	          0.12223337	          0.08953705	          0.14575880	          0.05000024	          0.16339082	          0.05000124	          0.05000006	          0.06883685	          0.06720858	          0.05000059	          0.05000029	          0.05000038	          0.05000057	          0.05000094	          0.05000110	          0.05000010	          0.05000018	          0.10861773	          0.05000051	          0.05001405	          0.09477127	          0.11997286	          0.31685294	          0.27384413	          0.14065002	          0.05000150	          0.05000325	          0.05928970	          0.05866537	          0.05069745	          0.09020002	          0.05039241	          0.05551735	          0.25840750	          0.05866655	          0.05000060	          0.06883682	          0.29163498	          0.28149444	          0.24078569	          0.05000076	          0.05004816	          0.05000001	          0.13143783	          0.05000112	          0.05000020	          0.44792257	          0.14976150	          0.09477039	          0.39047784	          0.65389534	          0.36960622	          0.05000003	          0.09477007	          0.10287884	
          0.02080130	         -2.88172328	         -1.72847263	          6.69980388	          0.03219325	          0.85593994	         -0.00156994	        -16.50223494	         -2.22689297	          9.66728369	         29.45468106	          4.13787052	          1.41034761	        -16.23218430	        -20.44131733	         -5.90553771	         -7.01183811	         14.95696864	         -7.65816446	         -1.95959758	         -0.01120631	         27.92212713	          0.08458501	         -0.09318009	          0.27051482	         -1.70232534	          4.69688133	        -13.57531141	         17.08768655	        -11.84122155	        -13.88618543	         10.19582448	         34.04180504	         17.38086525	         86.51662706	         86.51662706	          0.26375402	          0.05866760	          0.05000027	          0.24384660	          0.14166128	          0.06170625	          0.08841554	          0.05000218	          0.05000250	          0.05022563	          0.06884083	          0.16455575	          0.39570598	          0.12771008	          0.06010393	          0.10959422	          0.18291430	          0.09476778	          0.05001574	          0.05002336	          0.05647215	          0.05865891	          0.21628571	          0.31621853	          0.05018415	          0.05000214	          0.05000010	          0.13047327	          0.05868063	          0.08863992	          0.11119741	          0.19991215	          0.25120617	          0.17551169	          0.12719455	          0.14642974	          0.18465484	          0.22505613	          0.09421855	          0.12422605	          0.36821597	          0.26442199	          0.15701329	          0.08665389	          0.05866725	          0.05866714	          0.27307481	          0.23320053	          0.36070580	          0.05000076	          0.05000031	          0.05000019	          0.08134836	          0.10555328	          0.11205429	          0.05000007	          0.05000025	          0.08077059	          0.23080217	          0.27004343	          0.23950015	          0.16381023	          0.05000019	          0.06883911	          0.11134330	          0.05000012	          0.16188972	          0.16097075	          0.05475624	          0.05000059	          0.22023187	          0.05000062	          0.22606673	          0.05866721	          0.24855136	          0.25243103	          0.21249877	          0.05645238	          0.05581127	          0.05866720	          0.11483621	          0.05000040	          0.05000298	          0.38174871	          0.12763651	          0.08076949	          0.33279069	          0.59391671	          0.31500271	          0.05000006	          0.08076922	          0.08768003	
          0.03120195	         -2.86106047	         -1.89940831	          6.90902291	          0.04833666	          0.85452190	         -0.00138861	        -15.85496310	         -2.50212910	          9.35342750	         28.52404770	          4.60596813	          1.78867098	        -18.88829635	        -20.87155656	         -6.73065968	         -6.35609154	         15.86399462	         -8.70950038	         -2.30207449	          0.30888232	         27.12623911	          0.21387594	          0.12045908	          0.58329068	         -1.74288334	          4.33131283	        -13.62708493	         17.24420743	        -12.69962629	        -13.88102839	         10.16589677	         34.92557510	         17.14139480	         86.51662706	         86.51662706	          0.22478837	          0.05000042	          0.05000006	          0.20782200	          0.12073302	          0.05259021	          0.12312897	          0.05000027	          0.05000032	          0.05000015	          0.05867082	          0.17041992	          0.38729748	          0.10884372	          0.05122636	          0.09340521	          0.15589214	          0.08076776	          0.05000070	          0.05000107	          0.05000055	          0.05000042	          0.18433273	          0.26950200	          0.05000007	          0.05000061	          0.05000037	          0.11119785	          0.05001254	          0.09226287	          0.09477105	          0.17037811	          0.21409422	          0.14958245	          0.10840458	          0.12479730	          0.15737553	          0.21051238	          0.08076972	          0.10587360	          0.31381763	          0.27325841	          0.13381706	          0.11773966	          0.05000005	          0.05000005	          0.35119646	          0.47213928	          0.62247312	          0.14193964	          0.28849590	          0.39065612	          0.06933040	          0.08995961	          0.09549998	          0.05867005	          0.05000079	          0.06883797	          0.19670461	          0.23014867	          0.20411796	          0.16090703	          0.05000030	          0.05866947	          0.09489423	          0.31497044	          0.25154537	          0.16636455	          0.05000009	          0.05000009	          0.18769612	          0.05000271	          0.21866455	          0.05000004	          0.35649000	          0.36044434	          0.30414810	          0.05000002	          0.05000004	          0.05000000	          0.22740604	          0.07086438	          0.05000052	          0.47023739	          0.10878013	          0.06883701	          0.28362592	          0.50617514	          0.38117686	          0.06348708	          0.06883679	          0.07472661	
